<?xml version="1.0" standalone="no"?>
<!DOCTYPE svg PUBLIC "-//W3C//DTD SVG 20010904//EN"
 "http://www.w3.org/TR/2001/REC-SVG-20010904/DTD/svg10.dtd">
<svg version="1.0" xmlns="http://www.w3.org/2000/svg"
 width="696.000000pt" height="696.000000pt" viewBox="0 0 696.000000 696.000000"
 preserveAspectRatio="xMidYMid meet">
<metadata>
Created by potrace 1.14, written by Peter Selinger 2001-2017
</metadata>
<g transform="translate(0.000000,696.000000) scale(0.100000,-0.100000)"
fill="#000000" stroke="none">
<path d="M3930 6320 c-19 -10 -49 -36 -67 -58 -27 -34 -123 -187 -123 -197 0
-2 -22 -41 -48 -87 -26 -46 -65 -117 -86 -158 -21 -41 -44 -81 -52 -89 -10
-11 -44 -15 -131 -16 -175 -3 -281 -16 -497 -60 -230 -47 -515 -157 -751 -290
-332 -187 -645 -476 -847 -781 -57 -86 -164 -274 -173 -306 -4 -12 -11 -25
-14 -28 -12 -9 -73 -164 -117 -297 -136 -415 -158 -910 -59 -1338 77 -329 238
-678 428 -924 49 -63 55 -75 44 -92 -6 -10 -22 -19 -35 -19 -23 0 -71 45 -72
67 0 6 -4 13 -8 15 -5 2 -25 32 -44 68 -47 87 -202 351 -244 417 -44 68 -140
163 -197 196 -114 63 -216 75 -365 43 -24 -5 -143 -67 -165 -86 -7 -6 -54 -38
-105 -71 -96 -62 -181 -137 -183 -161 -5 -57 5 -79 111 -238 43 -65 79 -122
81 -127 8 -18 212 -331 307 -470 53 -78 119 -177 145 -220 69 -113 71 -116 82
-128 6 -7 26 -31 45 -55 80 -99 172 -165 247 -176 24 -3 220 -7 435 -9 216 -1
411 -5 433 -9 36 -7 44 -5 64 16 13 13 29 40 36 59 56 155 115 313 120 317 2
3 22 -7 43 -21 55 -36 228 -122 320 -158 91 -36 268 -98 297 -103 11 -2 51
-11 89 -20 97 -23 136 -28 366 -51 25 -2 85 -7 134 -10 49 -4 97 -8 108 -10
68 -13 202 -20 393 -20 235 1 316 6 490 29 201 27 317 55 430 101 11 5 22 9
25 10 62 22 171 86 387 228 90 59 165 107 167 107 9 0 146 97 178 126 70 64
123 137 288 403 93 150 170 276 170 279 0 3 7 13 15 22 24 26 29 94 10 123
-38 58 -110 40 -194 -48 -33 -36 -61 -67 -61 -70 0 -2 -12 -17 -27 -33 -59
-61 -140 -151 -192 -213 -133 -156 -237 -230 -358 -253 -10 -2 -73 -18 -141
-36 -140 -36 -193 -35 -236 5 -49 45 -25 115 52 154 21 10 89 36 152 56 121
39 224 88 252 118 24 26 32 73 18 106 -22 54 -86 69 -165 38 -27 -11 -124 -46
-215 -79 -91 -32 -174 -63 -185 -68 -11 -5 -87 -34 -170 -65 -200 -75 -268
-103 -340 -138 -60 -30 -217 -134 -223 -149 -2 -4 -7 -8 -11 -8 -5 0 -46 -25
-92 -57 -154 -103 -313 -162 -429 -157 -50 2 -191 14 -226 19 -300 48 -507
113 -727 228 -54 29 -106 57 -115 62 -9 6 -38 23 -64 38 -42 26 -46 30 -38 55
41 133 64 202 76 230 9 18 17 40 19 50 2 9 33 96 70 192 36 96 77 205 90 243
14 37 36 97 50 135 13 37 36 99 50 137 15 39 30 81 35 95 4 14 27 77 50 140
23 63 55 153 71 200 16 47 33 94 38 105 5 11 19 47 31 80 11 33 25 69 30 80
11 23 98 248 171 445 28 74 57 149 64 165 17 40 116 311 205 560 39 110 84
236 100 280 15 44 58 162 94 262 90 248 78 229 131 225 25 -2 45 -5 45 -6 0
-1 -14 -37 -31 -81 -17 -44 -32 -87 -35 -95 -2 -8 -12 -42 -22 -74 -21 -66
-21 -86 4 -214 9 -48 18 -97 20 -110 3 -13 25 -113 49 -222 24 -109 46 -209
49 -222 2 -13 9 -43 15 -68 15 -65 13 -106 -6 -121 -12 -11 -64 -14 -235 -14
l-220 0 -34 -37 c-27 -30 -34 -46 -34 -77 0 -49 21 -71 68 -71 20 -1 132 0
248 0 117 0 223 -4 237 -9 36 -14 56 -49 73 -123 37 -170 103 -487 108 -522 4
-21 8 -41 10 -45 2 -3 7 -22 10 -41 8 -53 40 -202 91 -430 74 -329 77 -342 84
-403 l7 -57 -30 -1 c-17 0 -96 0 -176 0 -100 1 -153 -3 -170 -12 -42 -21 -61
-79 -51 -150 2 -15 72 -38 119 -38 26 0 279 2 563 3 473 3 518 5 543 21 52 35
57 114 9 156 -25 22 -32 23 -123 17 -111 -7 -154 3 -174 43 -8 14 -26 89 -41
166 -15 77 -28 147 -30 155 -2 8 -10 42 -19 75 -8 33 -18 78 -22 100 -3 22 -8
43 -10 47 -4 6 -88 419 -100 493 -3 17 -9 46 -14 65 -5 19 -19 80 -30 135 -30
139 -29 138 -34 160 -21 93 -49 218 -56 255 -8 38 -41 191 -56 255 -2 11 -7
34 -10 50 -3 17 -11 55 -19 85 -7 30 -16 69 -18 85 -3 17 -12 60 -21 98 -9 37
-18 82 -21 100 -20 113 -61 311 -90 427 -49 197 -48 193 -33 188 7 -3 40 -13
73 -23 33 -10 69 -21 80 -26 11 -5 56 -22 100 -40 128 -49 289 -138 426 -235
125 -88 319 -275 389 -374 13 -19 35 -46 47 -60 13 -14 23 -28 23 -32 0 -3 6
-13 13 -20 28 -29 135 -205 164 -270 l12 -28 -37 19 c-108 55 -300 65 -397 21
-153 -69 -257 -207 -306 -405 -19 -75 -23 -117 -23 -250 0 -237 25 -364 133
-683 36 -104 133 -312 288 -613 7 -14 22 -34 34 -45 20 -18 20 -18 14 11 -4
17 -19 68 -32 115 -142 480 -206 911 -162 1093 64 269 282 362 483 208 99 -76
215 -202 236 -256 19 -49 30 -439 16 -535 -3 -19 -8 -55 -11 -80 -3 -25 -13
-72 -21 -105 -16 -61 -21 -142 -9 -153 21 -21 123 166 181 333 53 152 64 200
93 389 l16 110 69 37 c148 80 295 108 416 81 134 -30 245 -115 296 -227 65
-142 64 -355 -3 -555 -8 -25 -16 -58 -18 -74 -4 -27 -3 -27 16 -10 21 19 47
62 121 201 252 475 180 801 -193 872 -97 18 -282 7 -383 -23 -98 -30 -211 -77
-269 -114 -22 -13 -41 -21 -45 -18 -3 3 -6 32 -7 64 -3 68 -15 211 -20 232 -2
8 -7 35 -10 60 -13 101 -76 330 -137 500 -128 354 -369 695 -663 936 -49 41
-96 79 -102 84 -7 6 -61 42 -120 81 -199 130 -529 276 -713 314 -8 2 -42 10
-75 18 -33 9 -97 22 -142 29 -46 7 -83 16 -83 20 0 8 26 79 41 113 5 11 32 81
60 155 29 74 71 185 94 245 24 61 41 112 39 114 -12 13 -93 7 -124 -9z m-830
-1487 c-101 -197 -186 -362 -190 -368 -4 -5 -51 -95 -105 -199 -53 -104 -105
-203 -114 -220 -10 -17 -71 -134 -136 -261 -65 -126 -121 -234 -125 -240 -4
-5 -60 -116 -125 -245 -64 -129 -121 -243 -126 -252 -5 -10 -38 -77 -74 -150
-36 -73 -70 -140 -75 -148 -5 -8 -27 -51 -49 -95 -80 -159 -212 -410 -223
-422 -6 -7 -7 -13 -3 -13 5 0 1 -8 -7 -17 -8 -10 -18 -27 -22 -37 -4 -12 -10
-16 -16 -10 -12 12 -130 244 -124 244 2 0 -2 12 -9 28 -50 99 -102 293 -132
497 -15 100 -16 452 -1 535 9 51 17 92 21 115 16 76 26 121 29 130 1 6 11 37
21 70 29 100 90 245 144 343 48 87 138 229 167 262 7 8 39 47 70 85 115 141
353 350 474 416 45 25 74 42 80 50 9 10 203 101 270 126 79 30 206 71 240 77
14 2 43 9 65 14 41 11 66 16 145 27 25 4 46 8 47 9 1 1 16 3 33 4 l31 2 -181
-357z"/>
</g>
</svg>
